<?xml version="1.0" encoding="UTF-8"?>
<svg xmlns="http://www.w3.org/2000/svg" xmlns:xlink="http://www.w3.org/1999/xlink" width="100px" height="75px" viewBox="0 0 100 75" version="1.1">
<g id="surface1">
<path style=" stroke:none;fill-rule:nonzero;fill:rgb(0%,0%,0%);fill-opacity:1;" d="M 12.601562 34.800781 L 12.601562 56.5 L 15.699219 56.5 L 15.699219 16.199219 L 84.300781 16.199219 L 84.300781 58.101562 L 67.699219 58.101562 L 67.699219 61.199219 L 87.398438 61.199219 L 87.398438 13.101562 L 12.601562 13.101562 Z M 12.601562 34.800781 "/>
<path style=" stroke:none;fill-rule:nonzero;fill:rgb(0%,0%,0%);fill-opacity:1;" d="M 18.589844 20.449219 C 18.515625 20.644531 18.484375 20.851562 18.480469 21.160156 C 18.480469 21.394531 18.488281 21.605469 18.511719 21.625 C 18.53125 21.648438 21.71875 22.5 21.785156 22.5 C 21.796875 22.5 21.800781 28.269531 21.800781 35.324219 L 21.800781 48.148438 L 21.640625 48.25 C 21.328125 48.441406 20.625 48.660156 19.753906 48.84375 C 18.953125 49.011719 18.878906 49.035156 18.839844 49.148438 C 18.769531 49.320312 18.734375 50.359375 18.789062 50.441406 C 18.828125 50.496094 18.984375 50.5 19.679688 50.453125 C 22.421875 50.28125 23.929688 50.265625 26.953125 50.375 C 28.066406 50.421875 29.234375 50.453125 29.550781 50.464844 L 30.121094 50.476562 L 30.214844 50.226562 C 30.339844 49.898438 30.390625 49.136719 30.296875 49.070312 C 30.253906 49.046875 29.335938 48.84375 28.25 48.625 L 26.273438 48.226562 L 26.261719 41.984375 L 26.25 35.75 L 29.625 35.75 C 31.480469 35.75 33 35.765625 33 35.785156 C 33 35.945312 33.800781 39.519531 33.839844 39.558594 C 33.925781 39.644531 34.976562 39.640625 35.265625 39.554688 C 35.5 39.484375 35.503906 39.480469 35.480469 39.328125 C 35.296875 38.269531 35.296875 30.945312 35.480469 29.996094 C 35.503906 29.875 35.480469 29.84375 35.230469 29.726562 C 34.898438 29.566406 34.480469 29.515625 34.089844 29.59375 C 33.863281 29.644531 33.804688 29.675781 33.78125 29.769531 C 33.765625 29.828125 33.585938 30.664062 33.375 31.625 C 33.164062 32.589844 32.980469 33.390625 32.960938 33.410156 C 32.933594 33.433594 31.425781 33.445312 29.59375 33.441406 L 26.273438 33.425781 L 26.261719 27.859375 L 26.25 22.300781 L 36.878906 22.300781 L 37.371094 24.910156 C 37.640625 26.351562 37.878906 27.636719 37.910156 27.765625 L 37.960938 28.011719 L 38.570312 27.988281 C 38.96875 27.980469 39.226562 27.945312 39.324219 27.898438 L 39.476562 27.824219 L 39.605469 26.851562 C 39.894531 24.710938 40.039062 22.378906 39.96875 21.039062 L 39.933594 20.40625 L 31.003906 20.386719 C 23.441406 20.371094 21.875 20.355469 20.773438 20.285156 C 20.058594 20.238281 19.300781 20.195312 19.085938 20.191406 L 18.699219 20.175781 Z M 18.589844 20.449219 "/>
<path style=" stroke:none;fill-rule:nonzero;fill:rgb(0%,0%,0%);fill-opacity:1;" d="M 51.898438 20.183594 C 51.859375 20.191406 50.871094 20.234375 49.699219 20.285156 C 47.128906 20.390625 44.679688 20.390625 42.699219 20.28125 C 41.890625 20.234375 41.039062 20.199219 40.820312 20.199219 L 40.410156 20.199219 L 40.320312 20.410156 C 40.246094 20.601562 40.144531 21.648438 40.203125 21.648438 C 40.304688 21.648438 43.476562 22.503906 43.503906 22.535156 C 43.53125 22.558594 45.609375 25.921875 48.125 30.003906 L 52.699219 37.425781 L 52.699219 48.191406 L 52.339844 48.339844 C 51.738281 48.589844 51.320312 48.699219 50.375 48.855469 C 49.878906 48.933594 49.425781 49.015625 49.363281 49.023438 C 49.28125 49.046875 49.25 49.105469 49.199219 49.390625 C 49.140625 49.726562 49.144531 50.414062 49.210938 50.476562 C 49.230469 50.496094 49.636719 50.484375 50.109375 50.453125 C 53.320312 50.261719 57.070312 50.265625 60.203125 50.480469 L 60.683594 50.511719 L 60.78125 50.269531 C 60.851562 50.089844 60.875 49.894531 60.875 49.523438 L 60.875 49.03125 L 59.085938 48.621094 C 58.101562 48.394531 57.261719 48.195312 57.21875 48.179688 C 57.160156 48.15625 57.148438 47.328125 57.148438 42.386719 L 57.148438 36.613281 L 61.253906 29.570312 C 63.515625 25.695312 65.371094 22.519531 65.378906 22.511719 C 65.386719 22.5 65.554688 22.425781 65.761719 22.34375 C 66.261719 22.140625 66.921875 21.980469 67.898438 21.824219 C 69.101562 21.636719 69.015625 21.671875 69.085938 21.351562 C 69.144531 21.046875 69.164062 20.539062 69.121094 20.320312 C 69.09375 20.175781 69.089844 20.175781 68.761719 20.191406 C 68.574219 20.195312 67.886719 20.238281 67.226562 20.285156 C 65.683594 20.394531 63.433594 20.394531 61.675781 20.285156 C 60.933594 20.238281 60.183594 20.195312 60.015625 20.191406 L 59.699219 20.175781 L 59.628906 20.359375 C 59.515625 20.640625 59.433594 21.179688 59.46875 21.425781 C 59.503906 21.628906 59.519531 21.648438 59.691406 21.695312 C 59.789062 21.726562 60.523438 21.914062 61.320312 22.121094 C 62.113281 22.324219 62.769531 22.503906 62.773438 22.511719 C 62.785156 22.519531 61.195312 25.246094 59.25 28.574219 C 56.164062 33.851562 55.699219 34.625 55.59375 34.625 C 55.496094 34.625 55.035156 33.859375 51.96875 28.578125 C 50.035156 25.25 48.464844 22.515625 48.476562 22.496094 C 48.511719 22.441406 49.351562 22.113281 49.679688 22.03125 C 49.84375 21.988281 50.398438 21.886719 50.921875 21.804688 C 51.441406 21.71875 51.886719 21.636719 51.910156 21.609375 C 51.933594 21.585938 51.980469 21.363281 52.011719 21.121094 C 52.074219 20.601562 52.023438 20.164062 51.898438 20.183594 Z M 51.898438 20.183594 "/>
<path style=" stroke:none;fill-rule:nonzero;fill:rgb(0%,0%,0%);fill-opacity:1;" d="M 70.394531 20.261719 C 70.296875 20.441406 70.199219 20.941406 70.199219 21.261719 C 70.199219 21.53125 70.214844 21.605469 70.289062 21.640625 C 70.335938 21.664062 70.960938 21.839844 71.675781 22.023438 C 72.390625 22.203125 73.09375 22.390625 73.238281 22.433594 L 73.5 22.503906 L 73.5 33.925781 C 73.5 41.445312 73.480469 45.515625 73.449219 45.855469 C 73.351562 46.839844 73.144531 47.816406 72.871094 48.644531 C 72.675781 49.226562 72.039062 50.476562 71.679688 50.976562 C 70.914062 52.035156 69.808594 53.011719 68.664062 53.625 C 68.351562 53.789062 68.335938 53.863281 68.546875 54.230469 C 68.726562 54.546875 69.011719 54.800781 69.179688 54.800781 C 69.359375 54.800781 70.179688 54.460938 71.175781 53.976562 C 74.90625 52.148438 76.964844 49.933594 77.675781 46.984375 C 77.988281 45.683594 77.96875 46.546875 77.984375 33.960938 L 78.003906 22.496094 L 78.21875 22.398438 C 78.839844 22.136719 79.664062 21.929688 80.945312 21.726562 C 81.175781 21.683594 81.386719 21.636719 81.410156 21.609375 C 81.484375 21.535156 81.566406 20.738281 81.53125 20.449219 L 81.496094 20.175781 L 81.210938 20.183594 C 81.054688 20.195312 80.140625 20.234375 79.175781 20.28125 C 76.894531 20.390625 74.480469 20.394531 72.523438 20.285156 C 70.296875 20.160156 70.445312 20.160156 70.394531 20.261719 Z M 70.394531 20.261719 "/>
<path style=" stroke:none;fill-rule:nonzero;fill:rgb(0%,0%,0%);fill-opacity:1;" d="M 31.101562 56.601562 C 31.003906 56.621094 30.839844 56.65625 30.738281 56.671875 C 30.601562 56.695312 30.550781 56.730469 30.550781 56.796875 C 30.550781 56.871094 30.605469 56.894531 30.824219 56.925781 L 31.101562 56.953125 L 31.101562 57.558594 C 31.101562 58.160156 31.101562 58.160156 30.988281 58.128906 C 30.226562 57.910156 29.636719 58.039062 29.21875 58.515625 C 28.929688 58.839844 28.824219 59.175781 28.824219 59.75 C 28.828125 60.160156 28.851562 60.265625 28.964844 60.523438 C 29.226562 61.078125 29.589844 61.351562 30.085938 61.351562 C 30.386719 61.351562 30.695312 61.238281 30.941406 61.046875 L 31.070312 60.945312 L 31.125 61.105469 C 31.195312 61.308594 31.355469 61.359375 31.789062 61.320312 C 32.039062 61.289062 32.101562 61.269531 32.101562 61.199219 C 32.101562 61.140625 32.03125 61.089844 31.890625 61.039062 L 31.675781 60.976562 L 31.625 56.574219 L 31.449219 56.566406 C 31.355469 56.558594 31.195312 56.574219 31.101562 56.601562 Z M 30.851562 58.378906 L 31.050781 58.460938 L 31.050781 60.691406 L 30.898438 60.820312 C 30.574219 61.089844 30.078125 61.089844 29.796875 60.820312 C 29.554688 60.589844 29.476562 60.300781 29.476562 59.671875 C 29.476562 59.15625 29.484375 59.101562 29.625 58.820312 C 29.875 58.339844 30.335938 58.175781 30.851562 58.378906 Z M 30.851562 58.378906 "/>
<path style=" stroke:none;fill-rule:nonzero;fill:rgb(0%,0%,0%);fill-opacity:1;" d="M 55.425781 56.601562 C 55.34375 56.621094 55.191406 56.65625 55.089844 56.671875 C 54.949219 56.695312 54.898438 56.730469 54.898438 56.796875 C 54.898438 56.871094 54.953125 56.894531 55.148438 56.921875 L 55.398438 56.953125 L 55.398438 61.144531 L 55.664062 61.230469 C 55.804688 61.273438 56.160156 61.320312 56.449219 61.335938 C 56.910156 61.355469 57.011719 61.34375 57.269531 61.25 C 57.628906 61.109375 57.914062 60.859375 58.089844 60.53125 C 58.191406 60.328125 58.21875 60.179688 58.238281 59.828125 C 58.265625 59.296875 58.195312 58.945312 58 58.636719 C 57.636719 58.058594 56.859375 57.910156 56.238281 58.300781 L 56 58.445312 L 55.988281 57.511719 L 55.976562 56.574219 L 55.773438 56.566406 C 55.664062 56.558594 55.511719 56.574219 55.425781 56.601562 Z M 57.015625 58.46875 C 57.230469 58.554688 57.480469 58.851562 57.546875 59.085938 C 57.625 59.371094 57.609375 60.09375 57.519531 60.394531 C 57.429688 60.710938 57.160156 61.019531 56.914062 61.105469 C 56.714844 61.171875 56.34375 61.140625 56.136719 61.046875 L 56 60.984375 L 56 58.820312 L 56.144531 58.679688 C 56.269531 58.558594 56.609375 58.414062 56.789062 58.40625 C 56.824219 58.398438 56.925781 58.429688 57.015625 58.46875 Z M 57.015625 58.46875 "/>
<path style=" stroke:none;fill-rule:nonzero;fill:rgb(0%,0%,0%);fill-opacity:1;" d="M 23.605469 56.828125 C 23.421875 56.984375 23.40625 57.144531 23.566406 57.320312 C 23.734375 57.511719 23.941406 57.511719 24.125 57.324219 C 24.285156 57.171875 24.28125 57.046875 24.121094 56.855469 C 23.960938 56.664062 23.808594 56.65625 23.605469 56.828125 Z M 23.605469 56.828125 "/>
<path style=" stroke:none;fill-rule:nonzero;fill:rgb(0%,0%,0%);fill-opacity:1;" d="M 19.699219 56.941406 C 19.699219 57.019531 19.75 57.058594 19.941406 57.109375 L 20.175781 57.179688 L 20.191406 59.054688 L 20.199219 60.933594 L 20.074219 60.988281 C 20.003906 61.023438 19.898438 61.050781 19.851562 61.050781 C 19.785156 61.050781 19.75 61.085938 19.75 61.148438 C 19.75 61.246094 19.785156 61.25 20.574219 61.25 C 21.355469 61.25 21.398438 61.246094 21.398438 61.15625 C 21.398438 61.078125 21.351562 61.054688 21.160156 61.023438 C 21.03125 61.011719 20.894531 60.976562 20.859375 60.953125 C 20.816406 60.925781 20.800781 60.683594 20.808594 60.019531 L 20.824219 59.125 L 21.816406 59.125 L 21.875 59.390625 C 21.945312 59.691406 21.964844 59.726562 22.074219 59.683594 C 22.136719 59.660156 22.148438 59.535156 22.148438 58.949219 C 22.148438 58.25 22.148438 58.246094 22.039062 58.261719 C 21.949219 58.269531 21.921875 58.324219 21.875 58.523438 L 21.824219 58.773438 L 21.308594 58.789062 L 20.800781 58.804688 L 20.800781 57.148438 L 22.390625 57.148438 L 22.453125 57.5 C 22.578125 58.21875 22.761719 58.164062 22.789062 57.398438 L 22.808594 56.898438 L 21.671875 56.898438 C 21.039062 56.898438 20.339844 56.886719 20.113281 56.863281 C 19.714844 56.835938 19.699219 56.839844 19.699219 56.941406 Z M 19.699219 56.941406 "/>
<path style=" stroke:none;fill-rule:nonzero;fill:rgb(0%,0%,0%);fill-opacity:1;" d="M 33.648438 56.953125 C 33.648438 57.019531 33.714844 57.066406 33.878906 57.109375 L 34.109375 57.175781 L 34.78125 58.25 L 35.449219 59.324219 L 35.433594 60.148438 L 35.425781 60.976562 L 35.199219 61.03125 C 35.058594 61.066406 34.96875 61.113281 34.960938 61.164062 C 34.945312 61.238281 35.023438 61.25 35.796875 61.25 C 36.613281 61.25 36.648438 61.246094 36.648438 61.148438 C 36.648438 61.089844 36.613281 61.050781 36.566406 61.050781 C 36.515625 61.050781 36.390625 61.023438 36.289062 60.996094 L 36.101562 60.945312 L 36.101562 59.246094 L 37.320312 57.15625 L 37.585938 57.09375 C 37.773438 57.050781 37.851562 57.011719 37.851562 56.949219 C 37.851562 56.875 37.78125 56.863281 37.164062 56.871094 C 36.554688 56.875 36.476562 56.886719 36.460938 56.960938 C 36.445312 57.023438 36.5 57.058594 36.671875 57.105469 C 36.796875 57.136719 36.898438 57.183594 36.898438 57.210938 C 36.898438 57.300781 35.925781 58.945312 35.875 58.929688 C 35.824219 58.914062 34.851562 57.265625 34.851562 57.195312 C 34.851562 57.15625 35.164062 57.050781 35.289062 57.050781 C 35.320312 57.050781 35.351562 57.011719 35.351562 56.953125 C 35.351562 56.871094 35.296875 56.863281 34.5 56.863281 C 33.714844 56.863281 33.648438 56.871094 33.648438 56.953125 Z M 33.648438 56.953125 "/>
<path style=" stroke:none;fill-rule:nonzero;fill:rgb(0%,0%,0%);fill-opacity:1;" d="M 49.550781 56.953125 C 49.550781 57.023438 49.609375 57.066406 49.773438 57.105469 L 50.003906 57.164062 L 49.988281 59.046875 L 49.976562 60.925781 L 49.824219 61.199219 C 49.746094 61.351562 49.578125 61.539062 49.46875 61.628906 C 49.324219 61.734375 49.273438 61.804688 49.300781 61.851562 C 49.335938 61.90625 49.371094 61.90625 49.511719 61.851562 C 49.816406 61.726562 50.144531 61.496094 50.324219 61.285156 C 50.628906 60.929688 50.648438 60.785156 50.648438 58.871094 L 50.648438 57.160156 L 50.898438 57.101562 C 51.085938 57.054688 51.148438 57.015625 51.148438 56.949219 C 51.148438 56.871094 51.078125 56.863281 50.351562 56.863281 C 49.609375 56.863281 49.550781 56.871094 49.550781 56.953125 Z M 49.550781 56.953125 "/>
<path style=" stroke:none;fill-rule:nonzero;fill:rgb(0%,0%,0%);fill-opacity:1;" d="M 39.109375 58.085938 C 38.753906 58.191406 38.351562 58.558594 38.199219 58.910156 C 38.03125 59.304688 38.011719 59.851562 38.144531 60.300781 C 38.238281 60.601562 38.300781 60.710938 38.515625 60.925781 C 38.824219 61.230469 39.125 61.351562 39.585938 61.351562 C 40.03125 61.351562 40.296875 61.273438 40.578125 61.054688 C 41.300781 60.511719 41.386719 59.203125 40.746094 58.480469 C 40.398438 58.085938 39.675781 57.910156 39.109375 58.085938 Z M 39.949219 58.339844 C 40.300781 58.515625 40.515625 59.046875 40.515625 59.75 C 40.519531 60.335938 40.410156 60.683594 40.148438 60.921875 C 39.96875 61.085938 39.925781 61.101562 39.65625 61.101562 C 39.265625 61.101562 39.074219 60.96875 38.875 60.574219 C 38.734375 60.296875 38.726562 60.234375 38.726562 59.726562 C 38.726562 59.421875 38.753906 59.085938 38.789062 58.96875 C 38.925781 58.519531 39.230469 58.25 39.601562 58.25 C 39.695312 58.25 39.855469 58.289062 39.949219 58.339844 Z M 39.949219 58.339844 "/>
<path style=" stroke:none;fill-rule:nonzero;fill:rgb(0%,0%,0%);fill-opacity:1;" d="M 52.691406 58.066406 C 51.988281 58.265625 51.59375 58.84375 51.59375 59.671875 C 51.59375 60.40625 51.84375 60.890625 52.355469 61.175781 C 52.605469 61.316406 52.660156 61.324219 53.148438 61.324219 C 53.75 61.324219 53.929688 61.253906 54.261719 60.914062 C 54.574219 60.589844 54.675781 60.304688 54.675781 59.699219 C 54.675781 59.234375 54.660156 59.140625 54.546875 58.894531 C 54.386719 58.554688 54.109375 58.269531 53.816406 58.140625 C 53.535156 58.015625 52.996094 57.980469 52.691406 58.066406 Z M 53.414062 58.320312 C 53.789062 58.480469 53.996094 58.894531 54.035156 59.570312 C 54.09375 60.574219 53.796875 61.101562 53.15625 61.101562 C 52.804688 61.101562 52.609375 60.976562 52.421875 60.640625 C 52.289062 60.398438 52.273438 60.320312 52.261719 59.820312 C 52.246094 59.410156 52.261719 59.191406 52.320312 58.984375 C 52.488281 58.394531 52.945312 58.121094 53.414062 58.320312 Z M 53.414062 58.320312 "/>
<path style=" stroke:none;fill-rule:nonzero;fill:rgb(0%,0%,0%);fill-opacity:1;" d="M 25.449219 58.136719 C 24.910156 58.238281 24.898438 58.246094 24.898438 58.351562 C 24.898438 58.425781 24.933594 58.449219 25.039062 58.449219 C 25.113281 58.449219 25.226562 58.464844 25.289062 58.480469 L 25.398438 58.511719 L 25.390625 59.738281 L 25.375 60.964844 L 25.175781 61.019531 C 25.054688 61.054688 24.96875 61.109375 24.960938 61.164062 C 24.945312 61.246094 25 61.25 25.683594 61.238281 C 26.285156 61.230469 26.425781 61.210938 26.425781 61.15625 C 26.425781 61.113281 26.328125 61.050781 26.210938 61.011719 L 26 60.941406 L 26.011719 59.859375 L 26.023438 58.78125 L 26.265625 58.628906 C 26.738281 58.339844 27.304688 58.429688 27.375 58.808594 C 27.390625 58.898438 27.398438 59.425781 27.390625 59.976562 L 27.375 60.976562 L 27.191406 61.019531 C 27.054688 61.054688 27 61.09375 27 61.160156 C 27 61.246094 27.054688 61.25 27.726562 61.25 C 28.40625 61.25 28.449219 61.246094 28.449219 61.15625 C 28.449219 61.085938 28.398438 61.050781 28.265625 61.015625 C 28.089844 60.976562 28.074219 60.953125 28.039062 60.75 C 28.023438 60.625 28.003906 60.09375 28.003906 59.574219 C 28 58.535156 27.964844 58.386719 27.691406 58.179688 C 27.363281 57.945312 26.65625 58.039062 26.191406 58.386719 L 25.949219 58.558594 L 25.949219 58.335938 C 25.949219 58.058594 25.898438 58.046875 25.449219 58.136719 Z M 25.449219 58.136719 "/>
<path style=" stroke:none;fill-rule:nonzero;fill:rgb(0%,0%,0%);fill-opacity:1;" d="M 46.925781 58.144531 C 46.84375 58.195312 46.679688 58.339844 46.566406 58.464844 L 46.351562 58.699219 L 46.351562 58.421875 C 46.351562 58.078125 46.316406 58.058594 45.804688 58.144531 C 45.289062 58.230469 45.25 58.246094 45.25 58.355469 C 45.25 58.425781 45.285156 58.449219 45.390625 58.449219 C 45.464844 58.449219 45.574219 58.464844 45.640625 58.480469 L 45.75 58.511719 L 45.738281 59.738281 L 45.726562 60.96875 L 45.523438 61.03125 C 45.410156 61.058594 45.320312 61.121094 45.308594 61.164062 C 45.296875 61.238281 45.375 61.25 46.121094 61.25 C 46.898438 61.25 46.949219 61.246094 46.949219 61.15625 C 46.949219 61.078125 46.898438 61.054688 46.71875 61.023438 C 46.324219 60.964844 46.351562 61.039062 46.351562 60.023438 L 46.351562 59.109375 L 46.515625 58.871094 C 46.691406 58.601562 46.953125 58.398438 47.125 58.398438 C 47.226562 58.398438 47.238281 58.433594 47.28125 58.710938 C 47.320312 59 47.335938 59.023438 47.453125 59.039062 C 47.574219 59.054688 47.589844 59.035156 47.644531 58.769531 C 47.726562 58.359375 47.714844 58.113281 47.621094 58.078125 C 47.453125 58.015625 47.074219 58.050781 46.925781 58.144531 Z M 46.925781 58.144531 "/>
<path style=" stroke:none;fill-rule:nonzero;fill:rgb(0%,0%,0%);fill-opacity:1;" d="M 23.550781 58.15625 C 23.425781 58.179688 23.273438 58.214844 23.214844 58.230469 C 23.140625 58.246094 23.101562 58.289062 23.101562 58.351562 C 23.101562 58.429688 23.136719 58.449219 23.289062 58.449219 C 23.390625 58.449219 23.503906 58.46875 23.539062 58.488281 C 23.585938 58.523438 23.601562 58.808594 23.589844 59.75 L 23.574219 60.96875 L 23.375 61.03125 C 23.261719 61.058594 23.171875 61.121094 23.160156 61.164062 C 23.144531 61.238281 23.21875 61.25 23.898438 61.25 C 24.578125 61.25 24.65625 61.238281 24.640625 61.164062 C 24.628906 61.121094 24.53125 61.050781 24.414062 61.011719 L 24.199219 60.941406 L 24.199219 58.101562 L 23.988281 58.105469 C 23.871094 58.109375 23.675781 58.128906 23.550781 58.15625 Z M 23.550781 58.15625 "/>
<path style=" stroke:none;fill-rule:nonzero;fill:rgb(0%,0%,0%);fill-opacity:1;" d="M 41.816406 58.183594 C 41.566406 58.246094 41.5 58.28125 41.5 58.355469 C 41.5 58.425781 41.535156 58.449219 41.644531 58.449219 C 41.960938 58.449219 41.949219 58.414062 41.949219 59.546875 C 41.949219 60.628906 41.988281 60.894531 42.164062 61.09375 C 42.496094 61.453125 43.199219 61.421875 43.726562 61.023438 C 43.851562 60.929688 43.96875 60.851562 43.996094 60.851562 C 44.019531 60.851562 44.054688 60.949219 44.070312 61.070312 C 44.101562 61.269531 44.121094 61.289062 44.273438 61.316406 C 44.371094 61.328125 44.570312 61.328125 44.726562 61.316406 C 44.945312 61.289062 45 61.269531 45 61.199219 C 45 61.140625 44.929688 61.089844 44.789062 61.039062 L 44.574219 60.976562 L 44.558594 59.535156 L 44.550781 58.101562 L 44.378906 58.101562 C 44.289062 58.101562 44.050781 58.136719 43.855469 58.179688 C 43.570312 58.246094 43.5 58.28125 43.5 58.355469 C 43.5 58.425781 43.535156 58.449219 43.644531 58.449219 C 43.960938 58.449219 43.949219 58.414062 43.949219 59.53125 L 43.949219 60.550781 L 43.738281 60.699219 C 43.363281 60.976562 42.921875 60.996094 42.679688 60.75 C 42.578125 60.648438 42.574219 60.589844 42.558594 59.375 L 42.546875 58.101562 L 42.335938 58.105469 C 42.21875 58.109375 41.984375 58.144531 41.816406 58.183594 Z M 41.816406 58.183594 "/>
</g>
</svg>
